<svg xmlns="http://www.w3.org/2000/svg"  viewBox="0 0 100 100" width="100px" height="100px"><path fill="#1f212b" d="M29,15h4l2.875,10.375h0.25L39,15h4l-5,16v10h-4V31L29,15z"/><path fill="#1f212b" d="M52.492,22.99c-1.001-0.993-2.279-1.49-3.847-1.49c-1.727,0-3.091,0.473-4.108,1.419	c-1.025,0.93-1.537,2.2-1.537,3.776v8.612c0,1.734,0.497,3.122,1.49,4.147C45.491,40.48,46.808,41,48.472,41	c1.727,0,3.075-0.497,4.052-1.498c0.978-1.001,1.466-2.373,1.466-4.123v-8.565C53.99,25.253,53.494,23.976,52.492,22.99z M50,36	c0,0.828-0.672,1.5-1.5,1.5S47,36.828,47,36c0-0.644,0-8.856,0-9.5c0-0.828,0.672-1.5,1.5-1.5s1.5,0.672,1.5,1.5	C50,27.144,50,35.356,50,36z"/><path fill="#1f212b" d="M64,22v14.204c-0.64,0.666-1.466,1.296-2.125,1.296C61.392,37.5,61,37.108,61,36.625V22h-4	c0,0,0,15.346,0,16.438C57,39.853,58.147,41,59.562,41c1.644,0,3.354-1.03,4.438-2.286V41h4V22H64z"/><path fill="#f15b6c" d="M21,64.5c0,5.75,0.185,10.985,0.512,12.5c0.352,1.631,1.12,3.113,2.247,4.24	c1.128,1.128,2.608,1.895,4.24,2.247C30.375,84,42,84,49.999,84c8,0,19.626,0,22.001-0.513c1.631-0.352,3.112-1.12,4.24-2.247	c1.128-1.128,1.895-2.609,2.247-4.24C78.815,75.484,79,70.251,79,64.5h-0.001c0-5.75-0.184-10.984-0.511-12.499	c-0.352-1.631-1.12-3.112-2.247-4.24s-2.608-1.895-4.24-2.247C69.625,45,57.999,45,49.999,45s-19.625,0-22,0.513	c-1.631,0.352-3.112,1.12-4.24,2.247s-1.895,2.609-2.247,4.24C21.185,53.516,21,58.75,21,64.5z"/><path fill="#1f212b" d="M50.23,85c-0.155,0-0.308,0-0.461,0c-10.306,0-19.705-0.043-21.98-0.535	c-1.851-0.4-3.489-1.271-4.735-2.518c-1.248-1.247-2.118-2.885-2.518-4.735C20.141,75.386,20,69.448,20,64.5	s0.141-10.885,0.535-12.71c0.4-1.851,1.271-3.489,2.518-4.736s2.884-2.117,4.735-2.518C30.082,44.04,39.611,43.997,50,44	c0.078,0,0.157,0,0.234,0c10.306,0,19.702,0.043,21.978,0.535c1.851,0.4,3.489,1.271,4.735,2.518	c1.247,1.247,2.118,2.885,2.518,4.736c0.394,1.823,0.534,7.761,0.534,12.71c0.001,4.719-0.138,10.88-0.534,12.712	c-0.4,1.851-1.271,3.488-2.518,4.735c-1.247,1.247-2.884,2.118-4.735,2.518C69.936,84.957,60.536,85,50.23,85z M50,83	c7.304-0.003,19.516,0.001,21.789-0.49c1.475-0.319,2.77-1.002,3.744-1.977c0.975-0.975,1.659-2.27,1.977-3.744	C77.803,75.433,78,70.494,78,64.5c-0.001-5.999-0.198-10.938-0.49-12.289c-0.318-1.475-1.002-2.77-1.977-3.745	s-2.269-1.658-3.744-1.977C69.515,46,57.3,45.995,50,46c-7.291,0.007-19.514,0-21.788,0.49c-1.475,0.318-2.77,1.002-3.744,1.977	c-0.975,0.975-1.659,2.27-1.977,3.745C22.197,53.567,22,58.505,22,64.5s0.197,10.933,0.49,12.289	c0.318,1.475,1.002,2.769,1.977,3.744c0.975,0.975,2.269,1.658,3.744,1.977C30.485,83.001,42.7,83.003,50,83z"/><polygon fill="#fff" points="38,51 26,51 26,55.065 30,55.065 30,77 34,77 34,55.065 38,55.065"/><path fill="#fff" d="M45,58v13.625c0,0-1.25,1.375-2.25,1.375C42.336,73,42,72.664,42,72.25V58h-4c0,0,0,15.501,0,16.063	C38,75.685,39.315,77,40.937,77c1.771,0,3.183-1.154,4.063-2v2h4V58H45z"/><path fill="#fff" d="M57.875,57.5c-0.679,0-1.31,0.18-1.875,0.47V51h-4v26h4v-0.47c0.565,0.29,1.196,0.47,1.875,0.47	C60.153,77,62,75.153,62,72.875c0-1.487,0-9.765,0-11.25C62,59.347,60.153,57.5,57.875,57.5z M58,73.188	C58,73.636,57.636,74,57.187,74C56.375,74,56,73.375,56,73.375v-11.75c0,0,0.375-0.625,1.187-0.625C57.636,61,58,61.364,58,61.813	C58,62.196,58,72.802,58,73.188z"/><path fill="#fff" d="M75,68c0-1.927,0-4.017,0-5c0-3.038-2.462-5.5-5.5-5.5S64,59.962,64,63c0,1.712,0,6.788,0,8.5	c0,3.038,2.462,5.5,5.5,5.5s5.5-2.462,5.5-5.5c0-0.366,0-0.892,0-1.5h-4c0,0,0,1.672,0,2.5S70.328,74,69.5,74S68,73.328,68,72.5	s0-4.5,0-4.5H75z M69.5,61c0.828,0,1.5,0.672,1.5,1.5c0,0.344,0,2.5,0,2.5h-3c0,0,0-1.672,0-2.5S68.672,61,69.5,61z"/></svg>